<?xml version="1.0" encoding="UTF-8"?>
<svg width="806px" height="126px" viewBox="0 0 806 126" version="1.1" xmlns="http://www.w3.org/2000/svg" xmlns:xlink="http://www.w3.org/1999/xlink">
    <!-- Generator: Sketch 51.3 (57544) - http://www.bohemiancoding.com/sketch -->
    <title>Group</title>
    <desc>Created with Sketch.</desc>
    <defs></defs>
    <g id="logo" stroke="none" stroke-width="1" fill="none" fill-rule="evenodd">
        <g id="linkedin-banner-copy-3" transform="translate(-365.000000, -224.000000)" fill="#000000">
            <g id="Group" transform="translate(365.000000, 224.000000)">
                <path d="M33.2752294,34.4885451 C33.2752294,36.867742 32.8217048,38.867468 31.9146422,40.4877832 C31.0075796,42.1080983 29.8047537,43.410484 28.3061284,44.3949792 C26.8075032,45.3794745 25.1018567,46.0870699 23.1891376,46.5177866 C21.2764186,46.9485033 19.3144321,47.1638584 17.3031193,47.1638584 L0.621137615,47.1638584 L0.621137615,3.6001602 L17.3031193,3.6001602 C18.920057,3.6001602 20.5764074,3.77449529 22.2722202,4.1231707 C23.9680329,4.47184611 25.5060726,5.06663641 26.8863853,5.90755946 C28.266698,6.74848251 29.3906501,7.8867881 30.2582752,9.32251038 C31.1259004,10.7582327 31.5597064,12.5836236 31.5597064,14.798738 C31.5597064,17.2189555 30.9287158,19.2186816 29.6667156,20.7979761 C28.4047154,22.3772706 26.748365,23.5155762 24.6976147,24.212927 L24.6976147,24.3359883 C25.8807399,24.5410915 26.9948327,24.9205267 28.0399266,25.4743053 C29.0850205,26.0280838 29.9920695,26.7356792 30.7611009,27.5971126 C31.5301323,28.4585459 32.1414045,29.4635365 32.5949358,30.6121143 C33.0484671,31.7606921 33.2752294,33.0528228 33.2752294,34.4885451 Z M21.7989725,16.2139429 C21.7989725,14.7371999 21.2567149,13.6604244 20.1721835,12.9835839 C19.0876521,12.3067434 17.4805978,11.9683282 15.3509725,11.9683282 L10.3818716,11.9683282 L10.3818716,20.9518027 L15.8242202,20.9518027 C17.7172205,20.9518027 19.1862455,20.5518575 20.2313394,19.7519551 C21.2764334,18.9520527 21.7989725,17.772727 21.7989725,16.2139429 Z M23.1595596,33.5040547 C23.1595596,31.6991467 22.5088505,30.448036 21.2074128,29.7506852 C19.9059751,29.0533344 18.1707509,28.7046642 16.0016881,28.7046642 L10.3818716,28.7046642 L10.3818716,38.6726291 L16.060844,38.6726291 C16.8495942,38.6726291 17.6679101,38.600844 18.5158165,38.4572718 C19.3637229,38.3136996 20.1327427,38.0573244 20.8228991,37.6881387 C21.5130554,37.318953 22.0750315,36.7959477 22.508844,36.1191072 C22.9426566,35.4422667 23.1595596,34.5705913 23.1595596,33.5040547 Z M86.3603119,47.1638584 L86.3603119,3.6001602 L96.5351376,3.6001602 L96.5351376,37.9957919 L112.743872,37.9957919 L112.743872,47.1638584 L86.3603119,47.1638584 Z M295.698477,41.1338549 C293.844914,43.3489693 291.557573,45.1025752 288.836385,46.3947253 C286.115197,47.6868753 282.979963,48.3329407 279.430587,48.3329407 C276.196712,48.3329407 273.209365,47.7791704 270.468459,46.6716132 C267.727552,45.564056 265.351478,43.9950402 263.340165,41.9645187 C261.328852,39.9339972 259.751376,37.5035609 258.607688,34.673137 C257.464,31.8427131 256.892165,28.7251915 256.892165,25.3204786 C256.892165,21.8337245 257.47386,18.6751829 258.637266,15.844759 C259.800672,13.0143351 261.407727,10.6044088 263.458477,8.61490794 C265.509227,6.62540707 267.914879,5.09741127 270.675505,4.03087473 C273.43613,2.96433818 276.413617,2.4310779 279.608055,2.4310779 C282.565868,2.4310779 285.47434,2.97459318 288.33356,4.06164005 C291.192779,5.14868692 293.509698,6.73821274 295.284385,8.8302652 L288.422294,15.9678203 C287.475793,14.6141393 286.233531,13.6091487 284.695468,12.9528186 C283.157405,12.2964884 281.579929,11.9683282 279.962991,11.9683282 C278.188303,11.9683282 276.56153,12.3067434 275.082624,12.9835839 C273.603717,13.6604244 272.331877,14.5936299 271.267064,15.7832283 C270.202252,16.9728268 269.374076,18.3777625 268.782514,19.9980777 C268.190951,21.6183928 267.895174,23.3925087 267.895174,25.3204786 C267.895174,27.2894692 268.190951,29.0943501 268.782514,30.7351756 C269.374076,32.376001 270.192392,33.7809368 271.237486,34.9500249 C272.28258,36.119113 273.534702,37.0318085 274.99389,37.6881387 C276.453078,38.3444689 278.050273,38.6726291 279.785523,38.6726291 C281.796836,38.6726291 283.551778,38.2624288 285.050404,37.4420161 C286.549029,36.6216034 287.751855,35.5550828 288.658917,34.2424225 L295.698477,41.1338549 Z M372.031853,47.1638584 L356.473835,27.1048674 L356.355523,27.1048674 L356.355523,47.1638584 L346.417321,47.1638584 L346.417321,3.6001602 L356.355523,3.6001602 L356.355523,21.3209866 L356.532991,21.3209866 L371.49945,3.6001602 L384.158826,3.6001602 L366.116257,23.6591512 L385.223633,47.1638584 L372.031853,47.1638584 Z M469.365596,41.1338549 C467.512034,43.3489693 465.224693,45.1025752 462.503505,46.3947253 C459.782317,47.6868753 456.647082,48.3329407 453.097706,48.3329407 C449.863831,48.3329407 446.876485,47.7791704 444.135578,46.6716132 C441.394671,45.564056 439.018597,43.9950402 437.007284,41.9645187 C434.995972,39.9339972 433.418495,37.5035609 432.274807,34.673137 C431.13112,31.8427131 430.559284,28.7251915 430.559284,25.3204786 C430.559284,21.8337245 431.140979,18.6751829 432.304385,15.844759 C433.467792,13.0143351 435.074846,10.6044088 437.125596,8.61490794 C439.176347,6.62540707 441.581998,5.09741127 444.342624,4.03087473 C447.103249,2.96433818 450.080736,2.4310779 453.275174,2.4310779 C456.232987,2.4310779 459.14146,2.97459318 462.000679,4.06164005 C464.859898,5.14868692 467.176817,6.73821274 468.951505,8.8302652 L462.089413,15.9678203 C461.142913,14.6141393 459.90065,13.6091487 458.362587,12.9528186 C456.824524,12.2964884 455.247048,11.9683282 453.63011,11.9683282 C451.855422,11.9683282 450.22865,12.3067434 448.749743,12.9835839 C447.270837,13.6604244 445.998996,14.5936299 444.934183,15.7832283 C443.869371,16.9728268 443.041196,18.3777625 442.449633,19.9980777 C441.85807,21.6183928 441.562294,23.3925087 441.562294,25.3204786 C441.562294,27.2894692 441.85807,29.0943501 442.449633,30.7351756 C443.041196,32.376001 443.859512,33.7809368 444.904606,34.9500249 C445.949699,36.119113 447.201821,37.0318085 448.661009,37.6881387 C450.120197,38.3444689 451.717392,38.6726291 453.452642,38.6726291 C455.463955,38.6726291 457.218898,38.2624288 458.717523,37.4420161 C460.216148,36.6216034 461.418974,35.5550828 462.326037,34.2424225 L469.365596,41.1338549 Z M546.527156,47.1638584 L546.527156,28.9507868 L530.20011,28.9507868 L530.20011,47.1638584 L520.08444,47.1638584 L520.08444,3.6001602 L530.20011,3.6001602 L530.20011,20.0903736 L546.527156,20.0903736 L546.527156,3.6001602 L556.642826,3.6001602 L556.642826,47.1638584 L546.527156,47.1638584 Z M628.959567,0.106666995 L612.450053,46.4717464 L645.102203,46.4717464 L628.959567,0.106666995 Z M701.205211,47.1638584 L701.205211,3.6001602 L711.380037,3.6001602 L711.380037,47.1638584 L701.205211,47.1638584 Z M793.03745,47.1638584 L776.178,18.6751687 L776.000532,18.6751687 L776.237156,47.1638584 L766.417266,47.1638584 L766.417266,3.6001602 L777.952679,3.6001602 L794.752972,32.0273192 L794.93044,32.0273192 L794.693817,3.6001602 L804.513706,3.6001602 L804.513706,47.1638584 L793.03745,47.1638584 Z M0.62853211,83.2362002 L9.89013761,83.2362002 L28.136055,113.809241 L28.2469725,113.809241 L28.2469725,83.2362002 L35.2347706,83.2362002 L35.2347706,124.077167 L26.3613761,124.077167 L7.72724771,92.5234823 L7.61633028,92.5234823 L7.61633028,124.077167 L0.62853211,124.077167 L0.62853211,83.2362002 Z M78.973211,103.541314 C78.973211,100.272482 79.5000635,97.3209631 80.5537844,94.6866691 C81.6075053,92.0523751 83.0679035,89.8122974 84.9350229,87.9663687 C86.8021424,86.1204401 89.0204688,84.6975581 91.5900688,83.6976801 C94.1596688,82.6978021 96.9603059,82.1978706 99.9920642,82.1978706 C103.060795,82.1978706 105.889161,82.6978021 108.477248,83.6976801 C111.065334,84.6975581 113.302147,86.1204401 115.187752,87.9663687 C117.073358,89.8122974 118.542999,92.0523751 119.59672,94.6866691 C120.650441,97.3209631 121.177294,100.272482 121.177294,103.541314 C121.177294,106.733232 120.650441,109.646295 119.59672,112.280589 C118.542999,114.914883 117.073358,117.183802 115.187752,119.087416 C113.302147,120.99103 111.065334,122.471597 108.477248,123.52916 C105.889161,124.586723 103.060795,125.115497 99.9920642,125.115497 C96.9603059,125.115497 94.1596688,124.586723 91.5900688,123.52916 C89.0204688,122.471597 86.8021424,120.99103 84.9350229,119.087416 C83.0679035,117.183802 81.6075053,114.914883 80.5537844,112.280589 C79.5000635,109.646295 78.973211,106.733232 78.973211,103.541314 Z M86.571055,103.541314 C86.571055,105.733354 86.894561,107.742694 87.5415826,109.569394 C88.1886042,111.396095 89.1129068,112.982416 90.3145183,114.328405 C91.5161299,115.674395 92.939556,116.722328 94.5848394,117.472237 C96.2301229,118.222145 98.0509992,118.597094 100.047523,118.597094 C102.044047,118.597094 103.874166,118.222145 105.537936,117.472237 C107.201706,116.722328 108.634375,115.674395 109.835986,114.328405 C111.037598,112.982416 111.9619,111.396095 112.608922,109.569394 C113.255944,107.742694 113.57945,105.733354 113.57945,103.541314 C113.57945,101.426187 113.255944,99.4649175 112.608922,97.6574457 C111.9619,95.8499739 111.046841,94.2732668 109.863716,92.9272772 C108.68059,91.5812875 107.257164,90.5237401 105.593394,89.7546032 C103.929625,88.9854662 102.081019,88.6009035 100.047523,88.6009035 C98.0140265,88.6009035 96.1746642,88.9854662 94.5293807,89.7546032 C92.8840973,90.5237401 91.4699142,91.5812875 90.286789,92.9272772 C89.1036638,94.2732668 88.1886042,95.8499739 87.5415826,97.6574457 C86.894561,99.4649175 86.571055,101.426187 86.571055,103.541314 Z M164.915734,83.2362002 L178.835872,83.2362002 C181.386985,83.2362002 183.956547,83.5823067 186.544633,84.2745299 C189.132719,84.9667532 191.461962,86.1108272 193.532431,87.7067863 C195.6029,89.3027455 197.285131,91.3986122 198.579174,93.9944493 C199.873217,96.5902865 200.520229,99.8109991 200.520229,103.656684 C200.520229,107.233171 199.873217,110.309672 198.579174,112.886281 C197.285131,115.46289 195.6029,117.577984 193.532431,119.231629 C191.461962,120.885273 189.132719,122.10626 186.544633,122.894625 C183.956547,123.682991 181.386985,124.077167 178.835872,124.077167 L164.915734,124.077167 L164.915734,83.2362002 Z M177.726697,117.731819 C179.538358,117.731819 181.349991,117.510696 183.161651,117.068442 C184.973312,116.626188 186.609328,115.876291 188.069748,114.818728 C189.530168,113.761164 190.722518,112.328668 191.646835,110.521197 C192.571151,108.713725 193.033303,106.425577 193.033303,103.656684 C193.033303,100.733963 192.571151,98.3496747 191.646835,96.503746 C190.722518,94.6578174 189.530168,93.2157073 188.069748,92.1773724 C186.609328,91.1390375 184.973312,90.4275966 183.161651,90.0430281 C181.349991,89.6584596 179.538358,89.4661783 177.726697,89.4661783 L171.903532,89.4661783 L171.903532,117.731819 L177.726697,117.731819 Z M244.25867,83.2362002 L270.268807,83.2362002 L270.268807,89.5815482 L251.246468,89.5815482 L251.246468,99.9648449 L269.27055,99.9648449 L269.27055,106.079453 L251.246468,106.079453 L251.246468,117.616449 L271.267064,117.616449 L271.267064,124.077167 L244.25867,124.077167 L244.25867,83.2362002 Z M385.918716,91.7735775 C385.179262,90.7736995 384.1348,89.9372756 382.785298,89.2642808 C381.435796,88.591286 380.077071,88.2547937 378.709083,88.2547937 C377.895684,88.2547937 377.082298,88.3605484 376.268899,88.5720611 C375.455501,88.7835737 374.716058,89.110452 374.05055,89.5527057 C373.385043,89.9949595 372.839704,90.5718035 372.414518,91.2832552 C371.989333,91.9947069 371.776743,92.8503589 371.776743,93.8502369 C371.776743,94.7732012 371.961604,95.5615547 372.33133,96.2153211 C372.701057,96.8690875 373.209423,97.4267034 373.856445,97.8881856 C374.503467,98.3496678 375.289124,98.7534586 376.21344,99.0995702 C377.137757,99.4456818 378.15449,99.7917883 379.26367,100.1379 C380.52074,100.560925 381.824007,101.041629 383.173509,101.580024 C384.523011,102.11842 385.761577,102.829861 386.889243,103.714369 C388.016909,104.598876 388.941212,105.714108 389.662179,107.060098 C390.383146,108.406087 390.743624,110.078935 390.743624,112.078691 C390.743624,114.270731 390.355417,116.183931 389.578991,117.818347 C388.802565,119.452763 387.767346,120.808346 386.473303,121.885138 C385.17926,122.96193 383.663403,123.769511 381.925688,124.307907 C380.187973,124.846303 378.357854,125.115497 376.435275,125.115497 C373.884162,125.115497 371.388544,124.62518 368.948349,123.64453 C366.508153,122.66388 364.511659,121.212156 362.958807,119.289314 L367.950092,114.443775 C368.911381,115.828222 370.196162,116.924226 371.804472,117.731819 C373.412783,118.539413 374.993341,118.943204 376.546193,118.943204 C377.359591,118.943204 378.191464,118.837449 379.041835,118.625937 C379.892206,118.414424 380.659377,118.058703 381.343372,117.558764 C382.027366,117.058825 382.581947,116.433911 383.007133,115.684002 C383.432319,114.934094 383.644908,114.001529 383.644908,112.886281 C383.644908,111.809489 383.40459,110.915381 382.923945,110.203929 C382.4433,109.492478 381.796288,108.877177 380.98289,108.35801 C380.169491,107.838842 379.208217,107.386981 378.099037,107.002413 L374.605138,105.791028 C373.422012,105.40646 372.238905,104.944984 371.05578,104.406589 C369.872655,103.868193 368.809707,103.156752 367.866904,102.272244 C366.924101,101.387737 366.15693,100.301347 365.565367,99.0130427 C364.973804,97.7247384 364.678028,96.1191891 364.678028,94.1963468 C364.678028,92.119677 365.093964,90.3314605 365.925849,88.8316435 C366.757734,87.3318264 367.848411,86.0916117 369.197913,85.1109621 C370.547415,84.1303126 372.081757,83.3996434 373.800986,82.9189328 C375.520215,82.4382223 377.267147,82.1978706 379.041835,82.1978706 C381.038359,82.1978706 383.062581,82.5632051 385.114564,83.2938852 C387.166547,84.0245653 388.950451,85.120569 390.46633,86.5819292 L385.918716,91.7735775 Z M434.703899,83.2362002 L460.714037,83.2362002 L460.714037,89.5815482 L441.691697,89.5815482 L441.691697,99.9648449 L459.71578,99.9648449 L459.71578,106.079453 L441.691697,106.079453 L441.691697,117.616449 L461.712294,117.616449 L461.712294,124.077167 L434.703899,124.077167 L434.703899,83.2362002 Z M505.506193,83.2362002 L519.149037,83.2362002 C520.99767,83.2362002 522.790817,83.4380957 524.528532,83.8418926 C526.266247,84.2456894 527.809833,84.9090601 529.159335,85.8320244 C530.508837,86.7549887 531.590271,87.9663612 532.40367,89.4661783 C533.217068,90.9659953 533.623761,92.7926681 533.623761,94.9462515 C533.623761,97.9074287 532.819618,100.32056 531.211307,102.185717 C529.602997,104.050874 527.412399,105.310317 524.63945,105.964083 L535.121147,124.077167 L526.691422,124.077167 L517.596193,106.771673 L512.493991,106.771673 L512.493991,124.077167 L505.506193,124.077167 L505.506193,83.2362002 Z M518.206239,100.83012 C519.2045,100.83012 520.202747,100.753207 521.201009,100.59938 C522.199271,100.445552 523.095845,100.15713 523.890757,99.734105 C524.685669,99.3110797 525.341924,98.7053934 525.859541,97.9170281 C526.377159,97.1286627 526.635963,96.1191856 526.635963,94.8885665 C526.635963,93.773318 526.395645,92.8599816 525.915,92.1485299 C525.434355,91.4370782 524.824316,90.8698483 524.084862,90.446823 C523.345409,90.0237976 522.504294,89.7353756 521.561491,89.5815482 C520.618688,89.4277208 519.703628,89.3508083 518.816284,89.3508083 L512.493991,89.3508083 L512.493991,100.83012 L518.206239,100.83012 Z M571.81633,83.2362002 L579.636009,83.2362002 L590.450459,114.674515 L590.672294,114.674515 L601.597661,83.2362002 L609.140046,83.2362002 L593.389771,124.077167 L587.344771,124.077167 L571.81633,83.2362002 Z M649.883716,83.2362002 L656.871514,83.2362002 L656.871514,124.077167 L649.883716,124.077167 L649.883716,83.2362002 Z M730.834954,92.8119072 C729.79972,91.350547 728.450238,90.2833855 726.786468,89.6103907 C725.122698,88.9373959 723.495925,88.6009035 721.906101,88.6009035 C719.872605,88.6009035 718.023999,88.9854662 716.360229,89.7546032 C714.69646,90.5237401 713.26379,91.5812875 712.062179,92.9272772 C710.860567,94.2732668 709.936265,95.8499739 709.289243,97.6574457 C708.642222,99.4649175 708.318716,101.426187 708.318716,103.541314 C708.318716,105.771811 708.632979,107.809993 709.261514,109.655922 C709.890049,111.50185 710.786623,113.088172 711.951261,114.414933 C713.1159,115.741694 714.511597,116.770399 716.138394,117.501079 C717.765192,118.231759 719.595311,118.597094 721.628807,118.597094 C723.736249,118.597094 725.60334,118.164461 727.230138,117.299182 C728.856935,116.433903 730.169445,115.289829 731.167706,113.866926 L736.769037,117.962559 C735.031322,120.231513 732.905425,121.990888 730.391284,123.240735 C727.877143,124.490583 724.937861,125.115497 721.573349,125.115497 C718.504618,125.115497 715.685494,124.586723 713.115894,123.52916 C710.546294,122.471597 708.337211,120.99103 706.488578,119.087416 C704.639945,117.183802 703.198033,114.914883 702.162798,112.280589 C701.127564,109.646295 700.609954,106.733232 700.609954,103.541314 C700.609954,100.272482 701.155293,97.3209631 702.245986,94.6866691 C703.33668,92.0523751 704.83405,89.8122974 706.738142,87.9663687 C708.642234,86.1204401 710.88829,84.6975581 713.476376,83.6976801 C716.064462,82.6978021 718.874343,82.1978706 721.906101,82.1978706 C723.163171,82.1978706 724.475681,82.3228535 725.84367,82.572823 C727.211658,82.8227925 728.524168,83.2073552 729.781239,83.7265226 C731.038309,84.24569 732.221416,84.8898325 733.330596,85.6589695 C734.439776,86.4281064 735.382565,87.3510569 736.158991,88.4278486 L730.834954,92.8119072 Z M778.067294,83.2362002 L804.077431,83.2362002 L804.077431,89.5815482 L785.055092,89.5815482 L785.055092,99.9648449 L803.079174,99.9648449 L803.079174,106.079453 L785.055092,106.079453 L785.055092,117.616449 L805.075688,117.616449 L805.075688,124.077167 L778.067294,124.077167 L778.067294,83.2362002 Z" id="BLOCKCHAIN-NODE-SERV-Copy"></path>
                <ellipse id="dot" fill-rule="nonzero" cx="324.208485" cy="104.213065" rx="4.84518349" ry="5.03968254"></ellipse>
                <rect id="Rectangle" fill-rule="nonzero" transform="translate(187.000000, 24.198413) rotate(-45.000000) translate(-187.000000, -24.198413) " x="170" y="7.06349206" width="34" height="34.2698413"></rect>
            </g>
        </g>
    </g>
</svg>