<?xml version="1.0" encoding="UTF-8"?>
<svg width="660px" height="104px" viewBox="0 0 660 104" version="1.1" xmlns="http://www.w3.org/2000/svg" xmlns:xlink="http://www.w3.org/1999/xlink">
    <!-- Generator: Sketch 51.3 (57544) - http://www.bohemiancoding.com/sketch -->
    <title>Group 2 Copy</title>
    <desc>Created with Sketch.</desc>
    <defs></defs>
    <g id="logo" stroke="none" stroke-width="1" fill="none" fill-rule="evenodd">
        <g id="linkedin-banner" transform="translate(-705.000000, -332.000000)" fill="#FFFFFF">
            <g id="Group-2-Copy" transform="translate(705.000000, 332.000000)">
                <g id="Group-2-Copy-2">
                    <g id="Group">
                        <path d="M27.2477064,29.0614857 C27.2477064,31.0098045 26.876334,32.6473754 26.133578,33.9742476 C25.390822,35.3011199 24.4058777,36.3676404 23.1787156,37.1738413 C21.9515535,37.9800421 20.5548702,38.5594903 18.9886239,38.9122032 C17.4223775,39.264916 15.8157881,39.4412698 14.1688073,39.4412698 L0.508623853,39.4412698 L0.508623853,3.76706032 L14.1688073,3.76706032 C15.4928507,3.76706032 16.8491674,3.90982291 18.2377982,4.19535238 C19.626429,4.48088185 20.8858659,4.96795423 22.0161468,5.65658413 C23.1464277,6.34521403 24.0667854,7.27736978 24.7772477,8.45307937 C25.48771,9.62878895 25.8429358,11.1235973 25.8429358,12.9375492 C25.8429358,14.9194596 25.3262437,16.5570306 24.292844,17.8503111 C23.2594444,19.1435917 21.9031277,20.0757474 20.2238532,20.6468063 L20.2238532,20.747581 C21.1926654,20.9155395 22.1049498,21.2262581 22.9607339,21.679746 C23.816518,22.133234 24.5592629,22.7126822 25.1889908,23.4181079 C25.8187187,24.1235337 26.3192642,24.946518 26.6906422,25.8870857 C27.0620202,26.8276534 27.2477064,27.8857761 27.2477064,29.0614857 Z M17.8502752,14.0964571 C17.8502752,12.8871559 17.406243,12.0053869 16.5181651,11.4511238 C15.6300873,10.8968607 14.3141372,10.6197333 12.5702752,10.6197333 L8.5012844,10.6197333 L8.5012844,17.9762794 L12.9577982,17.9762794 C14.5078977,17.9762794 15.7108214,17.6487652 16.5666055,16.993727 C17.4223896,16.3386888 17.8502752,15.3729418 17.8502752,14.0964571 Z M18.9644037,28.2552889 C18.9644037,26.777254 18.431565,25.7527224 17.3658716,25.1816635 C16.3001782,24.6106046 14.8792749,24.3250794 13.1031193,24.3250794 L8.5012844,24.3250794 L8.5012844,32.4878222 L13.1515596,32.4878222 C13.7974344,32.4878222 14.4675195,32.4290376 15.1618349,32.3114667 C15.8561503,32.1938957 16.4858687,31.9839507 17.0510092,31.6816254 C17.6161496,31.3793001 18.0763285,30.9510123 18.4315596,30.3967492 C18.7867908,29.8424861 18.9644037,29.1286731 18.9644037,28.2552889 Z M70.7168807,39.4412698 L70.7168807,3.76706032 L79.0486239,3.76706032 L79.0486239,31.9335619 L92.3212844,31.9335619 L92.3212844,39.4412698 L70.7168807,39.4412698 Z M242.135229,34.5033143 C240.617424,36.3172662 238.744415,37.7532899 236.516147,38.8114286 C234.287879,39.8695672 231.720565,40.3986286 228.814128,40.3986286 C226.166042,40.3986286 223.719828,39.9451474 221.475413,39.0381714 C219.230998,38.1311955 217.285329,36.8463321 215.638349,35.1835429 C213.991368,33.5207536 212.699638,31.5304751 211.763119,29.2126476 C210.826601,26.8948202 210.358349,24.3418891 210.358349,21.5537778 C210.358349,18.6984831 210.834674,16.1119608 211.787339,13.7941333 C212.740005,11.4763059 214.055955,9.50282296 215.735229,7.8736254 C217.414504,6.24442783 219.384392,4.99315569 221.644954,4.11977143 C223.905516,3.24638717 226.343657,2.80970159 228.95945,2.80970159 C231.38148,2.80970159 233.763108,3.25478497 236.104404,4.14496508 C238.4457,5.03514519 240.342929,6.33680413 241.796147,8.04998095 L236.177064,13.8949079 C235.402014,12.7863818 234.384777,11.9633974 233.125321,11.4259302 C231.865865,10.8884629 230.574135,10.6197333 229.250092,10.6197333 C227.796873,10.6197333 226.464777,10.8968607 225.253761,11.4511238 C224.042746,12.0053869 223.001289,12.7695867 222.129358,13.743746 C221.257427,14.7179054 220.579268,15.8684039 220.094862,17.1952762 C219.610456,18.5221484 219.368257,19.9749678 219.368257,21.5537778 C219.368257,23.1661795 219.610456,24.6441922 220.094862,25.9878603 C220.579268,27.3315284 221.249354,28.482027 222.105138,29.4393905 C222.960922,30.396754 223.986233,31.1441582 225.181101,31.6816254 C226.375969,32.2190926 227.683846,32.4878222 229.104771,32.4878222 C230.751751,32.4878222 232.188801,32.1519102 233.415963,31.4800762 C234.643125,30.8082421 235.62807,29.934871 236.370826,28.8599365 L242.135229,34.5033143 Z M304.641468,39.4412698 L291.901651,23.0150095 L291.804771,23.0150095 L291.804771,39.4412698 L283.666789,39.4412698 L283.666789,3.76706032 L291.804771,3.76706032 L291.804771,18.2786032 L291.950092,18.2786032 L304.205505,3.76706032 L314.571743,3.76706032 L299.797431,20.1933206 L315.44367,39.4412698 L304.641468,39.4412698 Z M384.344037,34.5033143 C382.826231,36.3172662 380.953222,37.7532899 378.724954,38.8114286 C376.496686,39.8695672 373.929372,40.3986286 371.022936,40.3986286 C368.374849,40.3986286 365.928635,39.9451474 363.68422,39.0381714 C361.439805,38.1311955 359.494137,36.8463321 357.847156,35.1835429 C356.200175,33.5207536 354.908445,31.5304751 353.971927,29.2126476 C353.035408,26.8948202 352.567156,24.3418891 352.567156,21.5537778 C352.567156,18.6984831 353.043481,16.1119608 353.996147,13.7941333 C354.948812,11.4763059 356.264762,9.50282296 357.944037,7.8736254 C359.623311,6.24442783 361.5932,4.99315569 363.853761,4.11977143 C366.114323,3.24638717 368.552464,2.80970159 371.168257,2.80970159 C373.590287,2.80970159 375.971915,3.25478497 378.313211,4.14496508 C380.654507,5.03514519 382.551736,6.33680413 384.004954,8.04998095 L378.385872,13.8949079 C377.610822,12.7863818 376.593584,11.9633974 375.334128,11.4259302 C374.074673,10.8884629 372.782942,10.6197333 371.458899,10.6197333 C370.005681,10.6197333 368.673584,10.8968607 367.462569,11.4511238 C366.251554,12.0053869 365.210096,12.7695867 364.338165,13.743746 C363.466234,14.7179054 362.788076,15.8684039 362.30367,17.1952762 C361.819264,18.5221484 361.577064,19.9749678 361.577064,21.5537778 C361.577064,23.1661795 361.819264,24.6441922 362.30367,25.9878603 C362.788076,27.3315284 363.458161,28.482027 364.313945,29.4393905 C365.169729,30.396754 366.19504,31.1441582 367.389908,31.6816254 C368.584777,32.2190926 369.892653,32.4878222 371.313578,32.4878222 C372.960559,32.4878222 374.397609,32.1519102 375.624771,31.4800762 C376.851933,30.8082421 377.836877,29.934871 378.579633,28.8599365 L384.344037,34.5033143 Z M447.52844,39.4412698 L447.52844,24.5266286 L434.158899,24.5266286 L434.158899,39.4412698 L425.875596,39.4412698 L425.875596,3.76706032 L434.158899,3.76706032 L434.158899,17.2708571 L447.52844,17.2708571 L447.52844,3.76706032 L455.811743,3.76706032 L455.811743,39.4412698 L447.52844,39.4412698 Z M515.028926,0.906246988 L501.509969,38.874501 L528.247462,38.874501 L515.028926,0.906246988 Z M574.18789,39.4412698 L574.18789,3.76706032 L582.519633,3.76706032 L582.519633,39.4412698 L574.18789,39.4412698 Z M649.385505,39.4412698 L635.58,16.1119492 L635.434679,16.1119492 L635.62844,39.4412698 L627.587339,39.4412698 L627.587339,3.76706032 L637.033211,3.76706032 L650.790275,27.0459937 L650.935596,27.0459937 L650.741835,3.76706032 L658.782936,3.76706032 L658.782936,39.4412698 L649.385505,39.4412698 Z M0.514678899,68.9808254 L8.09862385,68.9808254 L23.0394495,94.0170159 L23.1302752,94.0170159 L23.1302752,68.9808254 L28.8522936,68.9808254 L28.8522936,102.425397 L21.5862385,102.425397 L6.32752294,76.5861587 L6.23669725,76.5861587 L6.23669725,102.425397 L0.514678899,102.425397 L0.514678899,68.9808254 Z M64.6678899,85.6086349 C64.6678899,82.9317961 65.0993076,80.5148044 65.962156,78.3575873 C66.8250043,76.2003702 68.0208639,74.3659758 69.5497706,72.8543492 C71.0786774,71.3427226 72.895173,70.1775279 74.9993119,69.3587302 C77.1034509,68.5399324 79.3967766,68.1305397 81.8793578,68.1305397 C84.3922144,68.1305397 86.7082463,68.5399324 88.8275229,69.3587302 C90.9467996,70.1775279 92.7784326,71.3427226 94.3224771,72.8543492 C95.8665215,74.3659758 97.0699498,76.2003702 97.9327982,78.3575873 C98.7956465,80.5148044 99.2270642,82.9317961 99.2270642,85.6086349 C99.2270642,88.2224893 98.7956465,90.6079892 97.9327982,92.7652063 C97.0699498,94.9224235 95.8665215,96.7804367 94.3224771,98.3393016 C92.7784326,99.8981665 90.9467996,101.110599 88.8275229,101.976635 C86.7082463,102.842671 84.3922144,103.275683 81.8793578,103.275683 C79.3967766,103.275683 77.1034509,102.842671 74.9993119,101.976635 C72.895173,101.110599 71.0786774,99.8981665 69.5497706,98.3393016 C68.0208639,96.7804367 66.8250043,94.9224235 65.962156,92.7652063 C65.0993076,90.6079892 64.6678899,88.2224893 64.6678899,85.6086349 Z M70.8894495,85.6086349 C70.8894495,87.4036915 71.1543551,89.0491354 71.6841743,90.5450159 C72.2139935,92.0408964 72.9708666,93.339931 73.9548165,94.4421587 C74.9387664,95.5443865 76.1043511,96.4025366 77.4516055,97.0166349 C78.7988599,97.6307332 80.2899001,97.9377778 81.9247706,97.9377778 C83.5596412,97.9377778 85.0582501,97.6307332 86.4206422,97.0166349 C87.7830343,96.4025366 88.9561877,95.5443865 89.9401376,94.4421587 C90.9240875,93.339931 91.6809607,92.0408964 92.2107798,90.5450159 C92.740599,89.0491354 93.0055046,87.4036915 93.0055046,85.6086349 C93.0055046,83.8765628 92.740599,82.2704836 92.2107798,80.7903492 C91.6809607,79.3102148 90.9316562,78.0190531 89.962844,76.9168254 C88.9940319,75.8145977 87.8284472,74.9485746 86.466055,74.3187302 C85.1036629,73.6888857 83.5899166,73.3739683 81.9247706,73.3739683 C80.2596247,73.3739683 78.7534471,73.6888857 77.4061927,74.3187302 C76.0589382,74.9485746 74.9009223,75.8145977 73.9321101,76.9168254 C72.9632979,78.0190531 72.2139935,79.3102148 71.6841743,80.7903492 C71.1543551,82.2704836 70.8894495,83.8765628 70.8894495,85.6086349 Z M135.042661,68.9808254 L146.441284,68.9808254 C148.530286,68.9808254 150.634393,69.2642511 152.75367,69.8311111 C154.872946,70.3979711 156.780267,71.3348506 158.475688,72.6417778 C160.171109,73.9487049 161.548619,75.6650052 162.608257,77.7907302 C163.667895,79.9164551 164.197706,82.553889 164.197706,85.7031111 C164.197706,88.6318877 163.667895,91.1512275 162.608257,93.2612063 C161.548619,95.3711852 160.171109,97.1032313 158.475688,98.4573968 C156.780267,99.8115623 154.872946,100.811425 152.75367,101.457016 C150.634393,102.102606 148.530286,102.425397 146.441284,102.425397 L135.042661,102.425397 L135.042661,68.9808254 Z M145.533028,97.2292063 C147.016521,97.2292063 148.499993,97.0481288 149.983486,96.6859683 C151.46698,96.3238077 152.806645,95.7097186 154.002523,94.8436825 C155.1984,93.9776465 156.174767,92.8045788 156.931651,91.3244444 C157.688536,89.8443101 158.066972,87.970551 158.066972,85.7031111 C158.066972,83.3097023 157.688536,81.3572139 156.931651,79.8455873 C156.174767,78.3339607 155.1984,77.1530201 154.002523,76.3027302 C152.806645,75.4524402 151.46698,74.8698428 149.983486,74.5549206 C148.499993,74.2399984 147.016521,74.0825397 145.533028,74.0825397 L140.764679,74.0825397 L140.764679,97.2292063 L145.533028,97.2292063 Z M200.013303,68.9808254 L221.311927,68.9808254 L221.311927,74.1770159 L205.735321,74.1770159 L205.735321,82.679873 L220.494495,82.679873 L220.494495,87.6871111 L205.735321,87.6871111 L205.735321,97.1347302 L222.129358,97.1347302 L222.129358,102.425397 L200.013303,102.425397 L200.013303,68.9808254 Z M316.012844,75.9720635 C315.407336,75.1532657 314.55207,74.4683202 313.447018,73.9172063 C312.341967,73.3660925 311.229363,73.0905397 310.109174,73.0905397 C309.443116,73.0905397 308.777068,73.177142 308.111009,73.3503492 C307.444951,73.5235564 306.839452,73.7912363 306.294495,74.1533968 C305.749539,74.5155574 305.302983,74.9879336 304.954817,75.5705397 C304.60665,76.1531458 304.432569,76.8538372 304.432569,77.6726349 C304.432569,78.4284482 304.583943,79.0740291 304.886697,79.6093968 C305.189451,80.1447646 305.605731,80.6013949 306.13555,80.9793016 C306.66537,81.3572082 307.308712,81.6878716 308.065596,81.9713016 C308.822481,82.2547316 309.655041,82.5381573 310.563303,82.8215873 C311.592666,83.1680017 312.659857,83.5616486 313.764908,84.0025397 C314.86996,84.4434308 315.88417,85.0260281 316.807569,85.7503492 C317.730968,86.4746703 318.487841,87.387931 319.078211,88.4901587 C319.668581,89.5923865 319.963761,90.9622775 319.963761,92.599873 C319.963761,94.3949296 319.645875,95.9616441 319.010092,97.3000635 C318.374309,98.6384829 317.526611,99.748567 316.466972,100.630349 C315.407334,101.512131 314.166062,102.173458 312.743119,102.614349 C311.320176,103.05524 309.821568,103.275683 308.247248,103.275683 C306.158246,103.275683 304.114689,102.874163 302.116514,102.071111 C300.118339,101.268059 298.483493,100.079246 297.211927,98.5046349 L301.299083,94.5366349 C302.086242,95.6703549 303.138296,96.5678697 304.455275,97.2292063 C305.772254,97.890543 307.066507,98.2212063 308.338073,98.2212063 C309.004132,98.2212063 309.685318,98.134604 310.381651,97.9613968 C311.077985,97.7881896 311.70619,97.4968909 312.266284,97.0874921 C312.826379,96.6780932 313.280503,96.1663523 313.62867,95.552254 C313.976837,94.9381557 314.150917,94.1744808 314.150917,93.2612063 C314.150917,92.3794242 313.95413,91.647241 313.56055,91.0646349 C313.166971,90.4820288 312.637159,89.9781609 311.971101,89.5530159 C311.305043,89.1278709 310.517894,88.7578428 309.609633,88.4429206 L306.748624,87.4509206 C305.779812,87.1359984 304.811014,86.7580974 303.842202,86.3172063 C302.87339,85.8763153 302.002986,85.2937179 301.230963,84.5693968 C300.458941,83.8450757 299.830736,82.9554338 299.34633,81.9004444 C298.861924,80.845455 298.619725,79.5306745 298.619725,77.9560635 C298.619725,76.2554836 298.960318,74.7911173 299.641514,73.5629206 C300.32271,72.334724 301.21582,71.3191151 302.320872,70.5160635 C303.425923,69.7130119 304.682332,69.1146686 306.090138,68.7210159 C307.497943,68.3273631 308.928433,68.1305397 310.381651,68.1305397 C312.016522,68.1305397 313.674074,68.4297113 315.354358,69.0280635 C317.034641,69.6264157 318.495407,70.5239305 319.736697,71.7206349 L316.012844,75.9720635 Z M355.961009,68.9808254 L377.259633,68.9808254 L377.259633,74.1770159 L361.683028,74.1770159 L361.683028,82.679873 L376.442202,82.679873 L376.442202,87.6871111 L361.683028,87.6871111 L361.683028,97.1347302 L378.077064,97.1347302 L378.077064,102.425397 L355.961009,102.425397 L355.961009,68.9808254 Z M413.938073,68.9808254 L425.109633,68.9808254 C426.623402,68.9808254 428.091736,69.1461571 429.514679,69.4768254 C430.937622,69.8074937 432.2016,70.3507264 433.306651,71.1065397 C434.411703,71.862353 435.297244,72.8543431 435.963303,74.0825397 C436.629361,75.3107363 436.962385,76.8065944 436.962385,78.5701587 C436.962385,80.9950597 436.303906,82.971167 434.986927,84.4985397 C433.669948,86.0259124 431.876158,87.0572672 429.605505,87.5926349 L438.188532,102.425397 L431.28578,102.425397 L423.838073,88.2539683 L419.660092,88.2539683 L419.660092,102.425397 L413.938073,102.425397 L413.938073,68.9808254 Z M424.337615,83.3884444 C425.15505,83.3884444 425.972473,83.3254609 426.789908,83.1994921 C427.607344,83.0735232 428.341511,82.8373351 428.992431,82.4909206 C429.643352,82.1445062 430.180732,81.6485112 430.604587,81.0029206 C431.028442,80.3573301 431.240367,79.5306717 431.240367,78.5229206 C431.240367,77.6096462 431.04358,76.8617172 430.65,76.2791111 C430.25642,75.696505 429.756884,75.2320017 429.151376,74.8855873 C428.545869,74.5391729 427.857114,74.3029848 427.085092,74.1770159 C426.31307,74.051047 425.563765,73.9880635 424.837156,73.9880635 L419.660092,73.9880635 L419.660092,83.3884444 L424.337615,83.3884444 Z M468.236697,68.9808254 L474.639908,68.9808254 L483.495413,94.7255873 L483.677064,94.7255873 L492.623394,68.9808254 L498.799541,68.9808254 L485.902294,102.425397 L480.952294,102.425397 L468.236697,68.9808254 Z M532.162844,68.9808254 L537.884862,68.9808254 L537.884862,102.425397 L532.162844,102.425397 L532.162844,68.9808254 Z M598.450459,76.8223492 C597.602748,75.6256448 596.497713,74.7517488 595.135321,74.2006349 C593.772929,73.6495211 592.440832,73.3739683 591.138991,73.3739683 C589.473845,73.3739683 587.960099,73.6888857 586.597706,74.3187302 C585.235314,74.9485746 584.062161,75.8145977 583.078211,76.9168254 C582.094261,78.0190531 581.337388,79.3102148 580.807569,80.7903492 C580.27775,82.2704836 580.012844,83.8765628 580.012844,85.6086349 C580.012844,87.4351837 580.270181,89.1042464 580.784862,90.615873 C581.299544,92.1274996 582.033711,93.4265343 582.987385,94.5130159 C583.94106,95.5994975 585.083938,96.4419018 586.416055,97.040254 C587.748172,97.6386062 589.246781,97.9377778 590.911927,97.9377778 C592.637623,97.9377778 594.166507,97.5834956 595.498624,96.8749206 C596.830741,96.1663457 597.9055,95.2294661 598.722936,94.064254 L603.309633,97.4181587 C601.88669,99.2761998 600.145882,100.716947 598.087156,101.740444 C596.02843,102.763942 593.621573,103.275683 590.866514,103.275683 C588.353657,103.275683 586.045194,102.842671 583.941055,101.976635 C581.836916,101.110599 580.027989,99.8981665 578.51422,98.3393016 C577.000451,96.7804367 575.819729,94.9224235 574.972018,92.7652063 C574.124308,90.6079892 573.700459,88.2224893 573.700459,85.6086349 C573.700459,82.9317961 574.147014,80.5148044 575.040138,78.3575873 C575.933261,76.2003702 577.159396,74.3659758 578.718578,72.8543492 C580.27776,71.3427226 582.116962,70.1775279 584.236239,69.3587302 C586.355515,68.5399324 588.65641,68.1305397 591.138991,68.1305397 C592.168354,68.1305397 593.243114,68.2328879 594.363303,68.4375873 C595.483492,68.6422867 596.558252,68.9572042 597.587615,69.3823492 C598.616978,69.8074942 599.585775,70.334981 600.494037,70.9648254 C601.402298,71.5946698 602.174309,72.3504718 602.810092,73.232254 L598.450459,76.8223492 Z M637.127064,68.9808254 L658.425688,68.9808254 L658.425688,74.1770159 L642.849083,74.1770159 L642.849083,82.679873 L657.608257,82.679873 L657.608257,87.6871111 L642.849083,87.6871111 L642.849083,97.1347302 L659.243119,97.1347302 L659.243119,102.425397 L637.127064,102.425397 L637.127064,68.9808254 Z" id="BLOCKCHAIN-NODE-SERV-Copy"></path>
                        <ellipse id="dot" fill-rule="nonzero" cx="265.480894" cy="86.1587302" rx="3.96751998" ry="4.12698413"></ellipse>
                        <rect id="Rectangle" fill-rule="nonzero" transform="translate(153.126551, 20.634921) rotate(-45.000000) translate(-153.126551, -20.634921) " x="139.205955" y="6.6031746" width="27.8411911" height="28.0634921"></rect>
                    </g>
                </g>
            </g>
        </g>
    </g>
</svg>